<svg width="26" height="26" viewBox="0 0 26 26" fill="none" xmlns="http://www.w3.org/2000/svg">
<rect x="1.11768" y="0.69043" width="24.3072" height="24.3072" rx="3.87234" fill="#475FF3"/>
<path fill-rule="evenodd" clip-rule="evenodd" d="M12.4727 17.8085V9.9751H14.0706V17.8082L17.9185 17.8082C18.0068 17.8082 18.0783 17.7367 18.0783 17.6484L18.0783 15.3996H19.6763L19.6763 17.6484C19.6763 18.6192 18.8893 19.4062 17.9185 19.4062L12.9902 19.4063V19.4064L8.63579 19.4064C7.665 19.4064 6.87803 18.6194 6.87805 17.6486L6.87808 14.5802L8.47603 14.5802L8.476 17.6487C8.476 17.7369 8.54754 17.8085 8.63579 17.8085L12.4727 17.8085Z" fill="white"/>
<mask id="path-3-outside-1_302_17" maskUnits="userSpaceOnUse" x="4.6853" y="4.10083" width="18" height="12" fill="black">
<rect fill="white" x="4.6853" y="4.10083" width="18" height="12"/>
<path fill-rule="evenodd" clip-rule="evenodd" d="M11.2949 5.74001C11.2949 5.387 11.5811 5.10083 11.9341 5.10083H14.618C14.971 5.10083 15.2572 5.387 15.2572 5.74001V8.42389C15.2572 8.7769 14.971 9.06307 14.618 9.06307H11.9341C11.5811 9.06307 11.2949 8.7769 11.2949 8.42389V5.74001ZM16.9976 11.2525C16.9976 10.8995 17.2837 10.6133 17.6367 10.6133H20.3206C20.6736 10.6133 20.9598 10.8995 20.9598 11.2525V13.9363C20.9598 14.2893 20.6736 14.5755 20.3206 14.5755H17.6367C17.2837 14.5755 16.9976 14.2893 16.9976 13.9363V11.2525ZM6.32448 9.79834C5.97147 9.79834 5.6853 10.0845 5.6853 10.4375V13.1214C5.6853 13.4744 5.97147 13.7606 6.32448 13.7606H9.00836C9.36137 13.7606 9.64754 13.4744 9.64754 13.1214V10.4375C9.64754 10.0845 9.36137 9.79834 9.00836 9.79834H6.32448Z"/>
</mask>
<path fill-rule="evenodd" clip-rule="evenodd" d="M11.2949 5.74001C11.2949 5.387 11.5811 5.10083 11.9341 5.10083H14.618C14.971 5.10083 15.2572 5.387 15.2572 5.74001V8.42389C15.2572 8.7769 14.971 9.06307 14.618 9.06307H11.9341C11.5811 9.06307 11.2949 8.7769 11.2949 8.42389V5.74001ZM16.9976 11.2525C16.9976 10.8995 17.2837 10.6133 17.6367 10.6133H20.3206C20.6736 10.6133 20.9598 10.8995 20.9598 11.2525V13.9363C20.9598 14.2893 20.6736 14.5755 20.3206 14.5755H17.6367C17.2837 14.5755 16.9976 14.2893 16.9976 13.9363V11.2525ZM6.32448 9.79834C5.97147 9.79834 5.6853 10.0845 5.6853 10.4375V13.1214C5.6853 13.4744 5.97147 13.7606 6.32448 13.7606H9.00836C9.36137 13.7606 9.64754 13.4744 9.64754 13.1214V10.4375C9.64754 10.0845 9.36137 9.79834 9.00836 9.79834H6.32448Z" fill="white"/>
<path d="M11.9341 4.33398C11.1576 4.33398 10.5281 4.96348 10.5281 5.74001H12.0618C12.0618 5.81052 12.0046 5.86768 11.9341 5.86768V4.33398ZM14.618 4.33398H11.9341V5.86768H14.618V4.33398ZM16.024 5.74001C16.024 4.96348 15.3945 4.33398 14.618 4.33398V5.86768C14.5475 5.86768 14.4903 5.81052 14.4903 5.74001H16.024ZM16.024 8.42389V5.74001H14.4903V8.42389H16.024ZM14.618 9.82992C15.3945 9.82992 16.024 9.20042 16.024 8.42389H14.4903C14.4903 8.35338 14.5475 8.29622 14.618 8.29622V9.82992ZM11.9341 9.82992H14.618V8.29622H11.9341V9.82992ZM10.5281 8.42389C10.5281 9.20042 11.1576 9.82992 11.9341 9.82992V8.29622C12.0046 8.29622 12.0618 8.35338 12.0618 8.42389H10.5281ZM10.5281 5.74001V8.42389H12.0618V5.74001H10.5281ZM17.6367 9.84643C16.8602 9.84643 16.2307 10.4759 16.2307 11.2525H17.7644C17.7644 11.323 17.7072 11.3801 17.6367 11.3801V9.84643ZM20.3206 9.84643H17.6367V11.3801H20.3206V9.84643ZM21.7266 11.2525C21.7266 10.4759 21.0971 9.84643 20.3206 9.84643V11.3801C20.2501 11.3801 20.1929 11.323 20.1929 11.2525H21.7266ZM21.7266 13.9363V11.2525H20.1929V13.9363H21.7266ZM20.3206 15.3424C21.0971 15.3424 21.7266 14.7129 21.7266 13.9363H20.1929C20.1929 13.8658 20.2501 13.8087 20.3206 13.8087V15.3424ZM17.6367 15.3424H20.3206V13.8087H17.6367V15.3424ZM16.2307 13.9363C16.2307 14.7129 16.8602 15.3424 17.6367 15.3424V13.8087C17.7072 13.8087 17.7644 13.8658 17.7644 13.9363H16.2307ZM16.2307 11.2525V13.9363H17.7644V11.2525H16.2307ZM6.45215 10.4375C6.45215 10.508 6.39499 10.5652 6.32448 10.5652V9.03149C5.54795 9.03149 4.91845 9.66099 4.91845 10.4375H6.45215ZM6.45215 13.1214V10.4375H4.91845V13.1214H6.45215ZM6.32448 12.9937C6.39499 12.9937 6.45215 13.0509 6.45215 13.1214H4.91845C4.91845 13.8979 5.54795 14.5274 6.32448 14.5274V12.9937ZM9.00836 12.9937H6.32448V14.5274H9.00836V12.9937ZM8.88069 13.1214C8.88069 13.0509 8.93785 12.9937 9.00836 12.9937V14.5274C9.78489 14.5274 10.4144 13.8979 10.4144 13.1214H8.88069ZM8.88069 10.4375V13.1214H10.4144V10.4375H8.88069ZM9.00836 10.5652C8.93785 10.5652 8.88069 10.508 8.88069 10.4375H10.4144C10.4144 9.66099 9.78489 9.03149 9.00836 9.03149V10.5652ZM6.32448 10.5652H9.00836V9.03149H6.32448V10.5652Z" fill="#475FF3" mask="url(#path-3-outside-1_302_17)"/>
</svg>
