<svg width="377" height="79" viewBox="0 0 377 79" fill="none" xmlns="http://www.w3.org/2000/svg">
<g clip-path="url(#clip0_541_1313)">
<path d="M98.983 57.1591V21.8724H106.932V27.8683H107.345C108.08 25.8467 109.298 24.2692 110.998 23.1359C112.698 21.9872 114.727 21.4129 117.086 21.4129C119.475 21.4129 121.489 21.9949 123.128 23.1589C124.782 24.3075 125.946 25.8773 126.62 27.8683H126.987C127.768 25.908 129.085 24.3458 130.939 23.1818C132.807 22.0026 135.02 21.4129 137.578 21.4129C140.825 21.4129 143.474 22.439 145.526 24.4913C147.579 26.5436 148.605 29.5377 148.605 33.4738V57.1591H140.266V34.7603C140.266 32.5702 139.684 30.9697 138.52 29.9589C137.356 28.9328 135.931 28.4197 134.247 28.4197C132.24 28.4197 130.671 29.0476 129.537 30.3035C128.419 31.544 127.86 33.1598 127.86 35.1508V57.1591H119.705V34.4157C119.705 32.5932 119.153 31.1382 118.051 30.0508C116.963 28.9634 115.539 28.4197 113.778 28.4197C112.583 28.4197 111.496 28.726 110.515 29.3386C109.535 29.9359 108.754 30.7859 108.172 31.8886C107.59 32.976 107.299 34.2472 107.299 35.7022V57.1591H98.983ZM170.723 57.8483C167.185 57.8483 164.129 57.1131 161.556 55.6428C158.999 54.1572 157.031 52.059 155.652 49.3482C154.274 46.6221 153.585 43.4135 153.585 39.7225C153.585 36.0927 154.274 32.9071 155.652 30.1657C157.046 27.4089 158.991 25.2647 161.487 23.7332C163.984 22.1863 166.917 21.4129 170.286 21.4129C172.461 21.4129 174.513 21.7652 176.443 22.4697C178.388 23.1589 180.103 24.2309 181.589 25.6859C183.09 27.1409 184.269 28.994 185.127 31.2454C185.984 33.4814 186.413 36.1463 186.413 39.24V41.7901H157.49V36.1846H178.442C178.426 34.5918 178.082 33.1751 177.408 31.9346C176.734 30.6787 175.792 29.6909 174.582 28.9711C173.388 28.2512 171.994 27.8913 170.401 27.8913C168.701 27.8913 167.208 28.3048 165.921 29.1319C164.635 29.9436 163.632 31.0157 162.912 32.3481C162.207 33.6652 161.847 35.1125 161.832 36.69V41.5833C161.832 43.6356 162.207 45.3968 162.958 46.8671C163.708 48.3221 164.757 49.4401 166.105 50.2212C167.453 50.987 169.03 51.3698 170.838 51.3698C172.047 51.3698 173.143 51.2014 174.123 50.8644C175.103 50.5122 175.953 49.9991 176.673 49.3252C177.393 48.6514 177.936 47.8167 178.304 46.8212L186.069 47.6941C185.579 49.7464 184.644 51.5383 183.266 53.0698C181.903 54.5861 180.157 55.7654 178.028 56.6077C175.899 57.4347 173.464 57.8483 170.723 57.8483ZM204.603 57.7793C201.831 57.7793 199.35 57.0672 197.159 55.6428C194.969 54.2185 193.239 52.1509 191.968 49.4401C190.696 46.7293 190.061 43.4365 190.061 39.5617C190.061 35.6409 190.704 32.3328 191.99 29.6373C193.292 26.9265 195.046 24.8818 197.251 23.5035C199.457 22.1098 201.915 21.4129 204.626 21.4129C206.693 21.4129 208.393 21.7652 209.726 22.4697C211.058 23.1589 212.115 23.9936 212.896 24.9737C213.677 25.9386 214.282 26.8499 214.711 27.7075H215.055V10.1101H223.395V57.1591H215.216V51.5996H214.711C214.282 52.4572 213.662 53.3685 212.85 54.3334C212.038 55.2829 210.966 56.0946 209.634 56.7685C208.301 57.4424 206.624 57.7793 204.603 57.7793ZM206.923 50.9563C208.684 50.9563 210.185 50.4815 211.426 49.532C212.666 48.5671 213.608 47.227 214.251 45.5117C214.895 43.7964 215.216 41.7977 215.216 39.5157C215.216 37.2337 214.895 35.2504 214.251 33.5657C213.623 31.881 212.689 30.5715 211.449 29.6373C210.223 28.703 208.715 28.2359 206.923 28.2359C205.07 28.2359 203.523 28.7184 202.282 29.6832C201.042 30.6481 200.108 31.9805 199.48 33.6805C198.852 35.3806 198.538 37.3256 198.538 39.5157C198.538 41.7211 198.852 43.6892 199.48 45.4198C200.123 47.1351 201.065 48.4905 202.305 49.486C203.561 50.4662 205.1 50.9563 206.923 50.9563ZM245.662 71.1267C242.675 71.1267 240.11 70.7208 237.966 69.9091C235.822 69.1127 234.099 68.0407 232.797 66.6929C231.495 65.3451 230.592 63.8519 230.086 62.2131L237.575 60.3983C237.912 61.0875 238.402 61.769 239.046 62.4429C239.689 63.1321 240.554 63.6987 241.642 64.1429C242.744 64.6023 244.13 64.8321 245.8 64.8321C248.158 64.8321 250.111 64.2577 251.658 63.1091C253.205 61.9758 253.978 60.1073 253.978 57.5037V50.8185H253.565C253.136 51.6761 252.508 52.5568 251.681 53.4604C250.869 54.364 249.789 55.1221 248.442 55.7347C247.109 56.3473 245.432 56.6536 243.41 56.6536C240.7 56.6536 238.242 56.0181 236.036 54.7469C233.846 53.4604 232.1 51.546 230.798 49.0036C229.512 46.4459 228.869 43.245 228.869 39.4008C228.869 35.5261 229.512 32.2562 230.798 29.5913C232.1 26.9111 233.854 24.8818 236.059 23.5035C238.265 22.1098 240.723 21.4129 243.433 21.4129C245.501 21.4129 247.201 21.7652 248.534 22.4697C249.881 23.1589 250.953 23.9936 251.75 24.9737C252.546 25.9386 253.151 26.8499 253.565 27.7075H254.024V21.8724H262.225V57.7334C262.225 60.7505 261.506 63.2469 260.066 65.2226C258.626 67.1983 256.658 68.6762 254.162 69.6564C251.666 70.6366 248.832 71.1267 245.662 71.1267ZM245.731 50.1293C247.492 50.1293 248.993 49.7005 250.234 48.8428C251.474 47.9851 252.416 46.7522 253.059 45.1441C253.702 43.536 254.024 41.6063 254.024 39.3549C254.024 37.1342 253.702 35.1891 253.059 33.5197C252.431 31.8504 251.497 30.5562 250.256 29.6373C249.031 28.703 247.523 28.2359 245.731 28.2359C243.878 28.2359 242.331 28.7184 241.09 29.6832C239.85 30.6481 238.915 31.9729 238.287 33.6576C237.66 35.327 237.346 37.2261 237.346 39.3549C237.346 41.5144 237.66 43.4058 238.287 45.0293C238.931 46.6374 239.873 47.8932 241.113 48.7968C242.369 49.6851 243.908 50.1293 245.731 50.1293ZM268.808 57.1591V21.8724H276.871V27.7535H277.239C277.882 25.7165 278.985 24.1467 280.547 23.044C282.124 21.926 283.924 21.367 285.946 21.367C286.405 21.367 286.918 21.3899 287.485 21.4359C288.067 21.4665 288.549 21.5201 288.932 21.5967V29.2467C288.58 29.1242 288.021 29.017 287.255 28.9251C286.505 28.8179 285.777 28.7643 285.073 28.7643C283.556 28.7643 282.193 29.0936 280.983 29.7521C279.789 30.3954 278.847 31.2913 278.158 32.44C277.469 33.5887 277.124 34.9134 277.124 36.4143V57.1591H268.808ZM302.039 57.8712C299.803 57.8712 297.789 57.473 295.997 56.6766C294.22 55.8649 292.811 54.6703 291.77 53.0928C290.744 51.5153 290.231 49.5703 290.231 47.2576C290.231 45.2666 290.598 43.6202 291.333 42.3184C292.068 41.0166 293.072 39.9752 294.343 39.1941C295.614 38.413 297.046 37.8234 298.639 37.4252C300.247 37.0116 301.909 36.713 303.624 36.5292C305.691 36.3148 307.369 36.1234 308.655 35.9549C309.942 35.7711 310.876 35.4954 311.458 35.1278C312.055 34.745 312.354 34.1553 312.354 33.3589V33.2211C312.354 31.4904 311.841 30.1503 310.814 29.2008C309.788 28.2512 308.31 27.7765 306.381 27.7765C304.344 27.7765 302.728 28.2206 301.533 29.1089C300.354 29.9972 299.558 31.0463 299.144 32.2562L291.379 31.1535C291.992 29.0093 293.003 27.2174 294.412 25.7778C295.821 24.3228 297.544 23.2354 299.581 22.5156C301.618 21.7805 303.869 21.4129 306.335 21.4129C308.035 21.4129 309.727 21.612 311.412 22.0102C313.096 22.4084 314.636 23.067 316.029 23.9859C317.423 24.8895 318.541 26.1224 319.383 27.6846C320.241 29.2467 320.67 31.1994 320.67 33.5427V57.1591H312.675V52.3117H312.4C311.894 53.2919 311.182 54.2108 310.263 55.0685C309.36 55.9109 308.219 56.5924 306.84 57.1131C305.477 57.6185 303.877 57.8712 302.039 57.8712ZM304.198 51.7604C305.868 51.7604 307.315 51.4311 308.54 50.7725C309.765 50.0987 310.707 49.2104 311.366 48.1077C312.04 47.0049 312.377 45.8027 312.377 44.5009V40.3427C312.116 40.5572 311.672 40.7563 311.044 40.94C310.432 41.1238 309.742 41.2846 308.977 41.4225C308.211 41.5603 307.453 41.6828 306.702 41.7901C305.952 41.8973 305.301 41.9892 304.75 42.0657C303.509 42.2342 302.399 42.5099 301.418 42.8928C300.438 43.2756 299.665 43.8117 299.098 44.5009C298.532 45.1748 298.248 46.0477 298.248 47.1198C298.248 48.6514 298.807 49.8077 299.925 50.5887C301.043 51.3698 302.468 51.7604 304.198 51.7604ZM326.444 57.1591V21.8724H334.393V27.8683H334.807C335.542 25.8467 336.759 24.2692 338.459 23.1359C340.159 21.9872 342.189 21.4129 344.547 21.4129C346.936 21.4129 348.95 21.9949 350.589 23.1589C352.243 24.3075 353.407 25.8773 354.081 27.8683H354.449C355.23 25.908 356.547 24.3458 358.4 23.1818C360.269 22.0026 362.482 21.4129 365.039 21.4129C368.286 21.4129 370.936 22.439 372.988 24.4913C375.04 26.5436 376.066 29.5377 376.066 33.4738V57.1591H367.727V34.7603C367.727 32.5702 367.145 30.9697 365.981 29.9589C364.817 28.9328 363.393 28.4197 361.708 28.4197C359.702 28.4197 358.132 29.0476 356.999 30.3035C355.881 31.544 355.322 33.1598 355.322 35.1508V57.1591H347.166V34.4157C347.166 32.5932 346.615 31.1382 345.512 30.0508C344.425 28.9634 343 28.4197 341.239 28.4197C340.045 28.4197 338.957 28.726 337.977 29.3386C336.997 29.9359 336.216 30.7859 335.634 31.8886C335.052 32.976 334.761 34.2472 334.761 35.7022V57.1591H326.444Z" fill="black"/>
<path fill-rule="evenodd" clip-rule="evenodd" d="M49.4471 28.6818C51.6809 25.7696 53.2344 22.4209 53.2344 18.8369H46.4814C46.4814 20.4372 45.7768 22.3714 44.0889 24.5718C42.4121 26.7578 39.9222 28.9933 36.795 31.1096C30.5369 35.3447 22.1723 38.8025 14.0411 40.3911C6.58587 41.8477 -0.433687 48.2918 0.0212952 56.8064L6.76464 56.4461C6.53672 52.1808 10.2305 48.0163 15.3359 47.0188C24.3091 45.2657 33.5293 41.4736 40.5798 36.7023C44.1068 34.3154 47.2022 31.6085 49.4471 28.6818Z" fill="url(#paint0_linear_541_1313)"/>
<path fill-rule="evenodd" clip-rule="evenodd" d="M27.5887 28.6712C25.2405 25.819 23.4705 22.5355 23.2637 19.0362L30.0049 18.6377C30.0939 20.1444 30.9199 22.0929 32.8021 24.3789C34.653 26.627 37.3149 28.9416 40.5543 31.1368C47.0422 35.5334 55.4107 39.1584 63.0134 40.7638C70.0362 42.2467 77.1629 48.601 76.4638 56.9094L69.7346 56.3432C70.0562 52.5216 66.5056 48.4031 61.6182 47.371C53.1226 45.5771 43.9463 41.5929 36.766 36.7271C33.1713 34.2911 29.9682 31.5612 27.5887 28.6712Z" fill="url(#paint1_linear_541_1313)"/>
<path fill-rule="evenodd" clip-rule="evenodd" d="M46.5146 56.1167C46.5146 47.8301 53.2323 41.1125 61.5189 41.1125C69.8054 41.1125 76.5231 47.8302 76.5231 56.1167V56.8074C76.5231 65.094 69.8054 71.8115 61.5189 71.8115C53.2323 71.8115 46.5146 65.0939 46.5146 56.8073V56.1167ZM61.5189 47.8655C56.9618 47.8655 53.2676 51.5597 53.2676 56.1167V56.8073C53.2676 61.3644 56.9618 65.0586 61.5189 65.0586C66.0759 65.0586 69.7701 61.3644 69.7701 56.8074V56.1167C69.7701 51.5597 66.0759 47.8655 61.5189 47.8655Z" fill="url(#paint2_linear_541_1313)"/>
<path fill-rule="evenodd" clip-rule="evenodd" d="M23.2539 17.6258C23.2539 9.33918 29.9715 2.62158 38.2581 2.62158C46.5447 2.62158 53.2623 9.33919 53.2623 17.6258V18.3164C53.2623 26.603 46.5447 33.3206 38.2581 33.3206C29.9715 33.3206 23.2539 26.603 23.2539 18.3164V17.6258ZM38.2581 9.37455C33.7011 9.37455 30.0069 13.0687 30.0069 17.6258V18.3164C30.0069 22.8734 33.7011 26.5676 38.2581 26.5676C42.8151 26.5676 46.5093 22.8734 46.5093 18.3164V17.6258C46.5093 13.0688 42.8151 9.37455 38.2581 9.37455Z" fill="url(#paint3_linear_541_1313)"/>
<path fill-rule="evenodd" clip-rule="evenodd" d="M0.00195312 56.1167C0.00195312 47.8301 6.71957 41.1125 15.0062 41.1125C23.2927 41.1125 30.0104 47.8302 30.0104 56.1167V56.8074C30.0104 65.094 23.2927 71.8115 15.0062 71.8115C6.71957 71.8115 0.00195312 65.0939 0.00195312 56.8073V56.1167ZM15.0062 47.8655C10.4491 47.8655 6.75492 51.5597 6.75492 56.1167V56.8073C6.75492 61.3644 10.4491 65.0586 15.0062 65.0586C19.5632 65.0586 23.2574 61.3644 23.2574 56.8074V56.1167C23.2574 51.5597 19.5632 47.8655 15.0062 47.8655Z" fill="url(#paint4_linear_541_1313)"/>
</g>
<defs>
<linearGradient id="paint0_linear_541_1313" x1="26.6173" y1="18.8369" x2="26.6173" y2="56.8064" gradientUnits="userSpaceOnUse">
<stop stop-color="#9B04FF"/>
<stop offset="1" stop-color="#7F04FF"/>
</linearGradient>
<linearGradient id="paint1_linear_541_1313" x1="49.8875" y1="18.6377" x2="49.8875" y2="56.9094" gradientUnits="userSpaceOnUse">
<stop stop-color="#9B04FF"/>
<stop offset="1" stop-color="#7F04FF"/>
</linearGradient>
<linearGradient id="paint2_linear_541_1313" x1="61.5189" y1="41.1125" x2="61.5189" y2="71.8115" gradientUnits="userSpaceOnUse">
<stop stop-color="#9B04FF"/>
<stop offset="1" stop-color="#7F04FF"/>
</linearGradient>
<linearGradient id="paint3_linear_541_1313" x1="38.2581" y1="2.62158" x2="38.2581" y2="33.3206" gradientUnits="userSpaceOnUse">
<stop stop-color="#9B04FF"/>
<stop offset="1" stop-color="#7F04FF"/>
</linearGradient>
<linearGradient id="paint4_linear_541_1313" x1="15.0062" y1="41.1125" x2="15.0062" y2="71.8115" gradientUnits="userSpaceOnUse">
<stop stop-color="#9B04FF"/>
<stop offset="1" stop-color="#7F04FF"/>
</linearGradient>
<clipPath id="clip0_541_1313">
<rect width="377" height="79" fill="white"/>
</clipPath>
</defs>
</svg>
