<svg width="372" height="371" viewBox="0 0 372 371" fill="none" xmlns="http://www.w3.org/2000/svg">
<g clip-path="url(#clip0_542_1413)">
<rect x="0.90625" y="0.5" width="370.363" height="370.363" fill="url(#paint0_linear_542_1413)"/>
<path fill-rule="evenodd" clip-rule="evenodd" d="M222.651 157.629C229.97 148.087 235.061 137.114 235.061 125.371H212.934C212.934 130.614 210.625 136.952 205.094 144.162C199.6 151.324 191.441 158.649 181.195 165.584C160.689 179.461 133.281 190.791 106.638 195.996C82.2103 200.769 59.2098 221.884 60.7006 249.783L82.7961 248.602C82.0493 234.626 94.1524 220.981 110.881 217.712C140.283 211.968 170.494 199.543 193.596 183.909C205.153 176.088 215.295 167.218 222.651 157.629Z" fill="url(#paint1_linear_542_1413)"/>
<path fill-rule="evenodd" clip-rule="evenodd" d="M151.023 157.594C143.329 148.248 137.529 137.489 136.852 126.023L158.94 124.718C159.232 129.655 161.938 136.039 168.105 143.529C174.17 150.896 182.892 158.48 193.507 165.673C214.765 180.079 242.186 191.956 267.097 197.217C290.108 202.076 313.46 222.896 311.169 250.12L289.12 248.265C290.174 235.743 278.54 222.248 262.525 218.866C234.688 212.988 204.621 199.933 181.094 183.99C169.315 176.008 158.82 167.063 151.023 157.594Z" fill="url(#paint2_linear_542_1413)"/>
<path fill-rule="evenodd" clip-rule="evenodd" d="M213.037 247.522C213.037 220.37 235.048 198.359 262.2 198.359C289.353 198.359 311.364 220.37 311.364 247.522V249.785C311.364 276.937 289.353 298.949 262.2 298.949C235.048 298.949 213.037 276.937 213.037 249.785V247.522ZM262.2 220.486C247.269 220.486 235.164 232.591 235.164 247.522V249.785C235.164 264.717 247.269 276.822 262.2 276.822C277.132 276.822 289.237 264.717 289.237 249.785V247.522C289.237 232.591 277.132 220.486 262.2 220.486Z" fill="url(#paint3_linear_542_1413)"/>
<path fill-rule="evenodd" clip-rule="evenodd" d="M136.822 121.402C136.822 94.2501 158.833 72.239 185.986 72.239C213.138 72.239 235.149 94.2501 235.149 121.402V123.665C235.149 150.817 213.138 172.828 185.986 172.828C158.833 172.828 136.822 150.817 136.822 123.665V121.402ZM185.986 94.366C171.054 94.366 158.949 106.471 158.949 121.402V123.665C158.949 138.597 171.054 150.701 185.986 150.701C200.917 150.701 213.022 138.597 213.022 123.665V121.402C213.022 106.471 200.917 94.366 185.986 94.366Z" fill="url(#paint4_linear_542_1413)"/>
<path fill-rule="evenodd" clip-rule="evenodd" d="M60.6309 247.522C60.6309 220.37 82.6421 198.359 109.794 198.359C136.946 198.359 158.958 220.37 158.958 247.522V249.785C158.958 276.937 136.946 298.949 109.794 298.949C82.642 298.949 60.6309 276.937 60.6309 249.785V247.522ZM109.794 220.486C94.8624 220.486 82.7579 232.591 82.7579 247.522V249.785C82.7579 264.717 94.8625 276.822 109.794 276.822C124.726 276.822 136.83 264.717 136.83 249.785V247.522C136.83 232.591 124.726 220.486 109.794 220.486Z" fill="url(#paint5_linear_542_1413)"/>
</g>
<defs>
<linearGradient id="paint0_linear_542_1413" x1="186.088" y1="0.5" x2="186.088" y2="370.863" gradientUnits="userSpaceOnUse">
<stop stop-color="#9C01FF"/>
<stop offset="1" stop-color="#7401FF"/>
</linearGradient>
<linearGradient id="paint1_linear_542_1413" x1="133.414" y1="211.293" x2="173.022" y2="177.759" gradientUnits="userSpaceOnUse">
<stop stop-color="#FEFDFF"/>
<stop offset="1" stop-color="#E7C3FF"/>
</linearGradient>
<linearGradient id="paint2_linear_542_1413" x1="246.166" y1="171.881" x2="202.807" y2="169.166" gradientUnits="userSpaceOnUse">
<stop stop-color="#FEFDFF"/>
<stop offset="1" stop-color="#E7C3FF"/>
</linearGradient>
<linearGradient id="paint3_linear_542_1413" x1="262.2" y1="198.359" x2="262.2" y2="298.949" gradientUnits="userSpaceOnUse">
<stop stop-color="#FEFDFF"/>
<stop offset="1" stop-color="#E7C3FF"/>
</linearGradient>
<linearGradient id="paint4_linear_542_1413" x1="185.986" y1="72.239" x2="185.986" y2="172.828" gradientUnits="userSpaceOnUse">
<stop stop-color="#FEFDFF"/>
<stop offset="1" stop-color="#E7C3FF"/>
</linearGradient>
<linearGradient id="paint5_linear_542_1413" x1="109.794" y1="198.359" x2="109.794" y2="298.949" gradientUnits="userSpaceOnUse">
<stop stop-color="#FEFDFF"/>
<stop offset="1" stop-color="#E7C3FF"/>
</linearGradient>
<clipPath id="clip0_542_1413">
<rect x="0.90625" y="0.5" width="370.188" height="370.188" rx="62" fill="white"/>
</clipPath>
</defs>
</svg>
