<svg width="77" height="79" viewBox="0 0 77 79" fill="none" xmlns="http://www.w3.org/2000/svg">
<path fill-rule="evenodd" clip-rule="evenodd" d="M49.4471 28.6818C51.6809 25.7696 53.2344 22.4209 53.2344 18.8369H46.4814C46.4814 20.4372 45.7768 22.3714 44.0889 24.5718C42.4121 26.7578 39.9222 28.9933 36.795 31.1096C30.5369 35.3447 22.1723 38.8025 14.0411 40.3911C6.58587 41.8477 -0.433687 48.2918 0.0212952 56.8064L6.76464 56.4461C6.53672 52.1808 10.2305 48.0163 15.3359 47.0188C24.3091 45.2657 33.5293 41.4736 40.5798 36.7023C44.1068 34.3154 47.2022 31.6085 49.4471 28.6818Z" fill="url(#paint0_linear_541_1335)"/>
<path fill-rule="evenodd" clip-rule="evenodd" d="M27.5887 28.6712C25.2405 25.819 23.4705 22.5355 23.2637 19.0362L30.0049 18.6377C30.0939 20.1444 30.9199 22.0929 32.8021 24.3789C34.653 26.627 37.3149 28.9416 40.5543 31.1368C47.0422 35.5334 55.4107 39.1584 63.0134 40.7638C70.0362 42.2467 77.1629 48.601 76.4638 56.9094L69.7346 56.3432C70.0562 52.5216 66.5056 48.4031 61.6182 47.371C53.1226 45.5771 43.9463 41.5929 36.766 36.7271C33.1713 34.2911 29.9682 31.5612 27.5887 28.6712Z" fill="url(#paint1_linear_541_1335)"/>
<path fill-rule="evenodd" clip-rule="evenodd" d="M46.5146 56.1167C46.5146 47.8301 53.2323 41.1125 61.5189 41.1125C69.8054 41.1125 76.5231 47.8302 76.5231 56.1167V56.8074C76.5231 65.094 69.8054 71.8115 61.5189 71.8115C53.2323 71.8115 46.5146 65.0939 46.5146 56.8073V56.1167ZM61.5189 47.8655C56.9618 47.8655 53.2676 51.5597 53.2676 56.1167V56.8073C53.2676 61.3644 56.9618 65.0586 61.5189 65.0586C66.0759 65.0586 69.7701 61.3644 69.7701 56.8074V56.1167C69.7701 51.5597 66.0759 47.8655 61.5189 47.8655Z" fill="url(#paint2_linear_541_1335)"/>
<path fill-rule="evenodd" clip-rule="evenodd" d="M23.2539 17.6258C23.2539 9.33918 29.9715 2.62158 38.2581 2.62158C46.5447 2.62158 53.2623 9.33919 53.2623 17.6258V18.3164C53.2623 26.603 46.5447 33.3206 38.2581 33.3206C29.9715 33.3206 23.2539 26.603 23.2539 18.3164V17.6258ZM38.2581 9.37455C33.7011 9.37455 30.0069 13.0687 30.0069 17.6258V18.3164C30.0069 22.8734 33.7011 26.5676 38.2581 26.5676C42.8151 26.5676 46.5093 22.8734 46.5093 18.3164V17.6258C46.5093 13.0688 42.8151 9.37455 38.2581 9.37455Z" fill="url(#paint3_linear_541_1335)"/>
<path fill-rule="evenodd" clip-rule="evenodd" d="M0.00195312 56.1167C0.00195312 47.8301 6.71957 41.1125 15.0062 41.1125C23.2927 41.1125 30.0104 47.8302 30.0104 56.1167V56.8074C30.0104 65.094 23.2927 71.8115 15.0062 71.8115C6.71957 71.8115 0.00195312 65.0939 0.00195312 56.8073V56.1167ZM15.0062 47.8655C10.4491 47.8655 6.75492 51.5597 6.75492 56.1167V56.8073C6.75492 61.3644 10.4491 65.0586 15.0062 65.0586C19.5632 65.0586 23.2574 61.3644 23.2574 56.8074V56.1167C23.2574 51.5597 19.5632 47.8655 15.0062 47.8655Z" fill="url(#paint4_linear_541_1335)"/>
<defs>
<linearGradient id="paint0_linear_541_1335" x1="26.6173" y1="18.8369" x2="26.6173" y2="56.8064" gradientUnits="userSpaceOnUse">
<stop stop-color="#9B04FF"/>
<stop offset="1" stop-color="#7F04FF"/>
</linearGradient>
<linearGradient id="paint1_linear_541_1335" x1="49.8875" y1="18.6377" x2="49.8875" y2="56.9094" gradientUnits="userSpaceOnUse">
<stop stop-color="#9B04FF"/>
<stop offset="1" stop-color="#7F04FF"/>
</linearGradient>
<linearGradient id="paint2_linear_541_1335" x1="61.5189" y1="41.1125" x2="61.5189" y2="71.8115" gradientUnits="userSpaceOnUse">
<stop stop-color="#9B04FF"/>
<stop offset="1" stop-color="#7F04FF"/>
</linearGradient>
<linearGradient id="paint3_linear_541_1335" x1="38.2581" y1="2.62158" x2="38.2581" y2="33.3206" gradientUnits="userSpaceOnUse">
<stop stop-color="#9B04FF"/>
<stop offset="1" stop-color="#7F04FF"/>
</linearGradient>
<linearGradient id="paint4_linear_541_1335" x1="15.0062" y1="41.1125" x2="15.0062" y2="71.8115" gradientUnits="userSpaceOnUse">
<stop stop-color="#9B04FF"/>
<stop offset="1" stop-color="#7F04FF"/>
</linearGradient>
</defs>
</svg>
