<?xml version="1.0" standalone="no"?>
<!DOCTYPE svg PUBLIC "-//W3C//DTD SVG 20010904//EN"
 "http://www.w3.org/TR/2001/REC-SVG-20010904/DTD/svg10.dtd">
<svg version="1.0" xmlns="http://www.w3.org/2000/svg"
 width="1112.000000pt" height="1112.000000pt" viewBox="0 0 1112.000000 1112.000000"
 preserveAspectRatio="xMidYMid meet">
<metadata>
Created by potrace 1.14, written by Peter Selinger 2001-2017
</metadata>
<g transform="translate(0.000000,1112.000000) scale(0.100000,-0.100000)"
fill="#000000" stroke="none">
<path d="M1640 11089 c-315 -40 -654 -185 -909 -389 -355 -283 -599 -694 -678
-1140 -17 -101 -18 -256 -18 -4010 0 -4211 -3 -3938 52 -4155 192 -747 833
-1300 1605 -1384 136 -15 7640 -15 7776 0 380 41 744 200 1034 454 145 126
306 327 406 507 86 155 162 376 196 568 16 88 17 393 14 4055 l-3 3960 -22 87
c-96 385 -272 693 -541 949 -233 222 -501 372 -808 453 -228 59 43 56 -4174
55 -2126 -1 -3894 -5 -3930 -10z m4230 -2164 c293 -65 547 -202 750 -405 200
-200 336 -446 402 -729 25 -110 36 -452 19 -585 -55 -409 -293 -805 -723
-1202 -85 -77 -105 -101 -95 -111 6 -6 95 -54 197 -107 515 -265 1036 -457
1565 -577 180 -40 302 -83 478 -168 161 -77 223 -114 331 -201 261 -210 449
-523 523 -870 28 -131 25 -498 -5 -633 -31 -141 -75 -265 -134 -379 -214 -417
-601 -701 -1068 -784 -129 -23 -363 -23 -495 0 -694 123 -1193 700 -1222 1412
-19 460 129 849 442 1160 l91 91 -50 17 c-294 105 -882 393 -1168 573 l-88 55
-147 -87 c-299 -175 -700 -363 -1059 -496 -93 -34 -170 -64 -172 -65 -2 -1 36
-42 85 -91 181 -179 295 -366 372 -606 52 -163 65 -259 65 -477 0 -224 -18
-344 -80 -522 -164 -470 -559 -826 -1047 -943 -336 -80 -679 -43 -992 110
-146 71 -269 159 -390 280 -210 210 -341 452 -407 752 -19 85 -22 129 -22 323
0 196 2 238 22 327 85 389 303 710 642 946 239 166 450 252 796 326 431 92
848 227 1269 411 146 64 451 216 459 229 3 5 -45 54 -107 109 -162 145 -445
435 -508 522 -152 208 -246 436 -279 676 -17 124 -8 472 15 574 63 285 203
540 404 740 228 226 486 359 811 416 103 18 419 12 520 -11z"/>
<path d="M5435 8275 c-307 -57 -548 -276 -636 -577 -30 -102 -38 -325 -15
-423 31 -132 170 -371 285 -491 49 -50 184 -122 291 -156 65 -20 95 -23 225
-23 143 1 155 2 244 33 138 48 222 101 326 206 72 72 100 110 137 182 78 150
93 219 93 419 0 148 -3 180 -23 249 -117 406 -519 657 -927 581z"/>
<path d="M3197 4500 c-171 -21 -313 -87 -436 -205 -202 -194 -294 -423 -277
-694 14 -232 95 -413 254 -563 261 -246 647 -292 961 -115 99 56 235 189 288
282 87 154 116 266 116 455 0 105 -5 155 -22 225 -96 396 -480 664 -884 615z"/>
<path d="M7765 4499 c-180 -24 -324 -93 -462 -223 -215 -200 -298 -518 -222
-846 68 -293 296 -517 606 -595 98 -25 274 -23 378 5 354 92 594 392 611 763
11 254 -58 447 -225 630 -61 66 -191 167 -263 203 -107 54 -287 81 -423 63z"/>
</g>
</svg>
